<svg width="20" height="20" viewBox="0 0 20 20" fill="none" xmlns="http://www.w3.org/2000/svg">
<path d="M10.0001 18.3332C7.78998 18.3332 5.67035 17.4552 4.10755 15.8924C2.54475 14.3295 1.66678 12.21 1.66678 9.99983C1.66678 7.78969 2.54475 5.67008 4.10755 4.10728C5.67035 2.54448 7.78998 1.6665 10.0001 1.6665C12.2102 1.6665 14.3298 2.54448 15.8927 4.10728C17.4554 5.67008 18.3334 7.78969 18.3334 9.99983C18.3334 12.21 17.4554 14.3295 15.8927 15.8924C14.3298 17.4552 12.2102 18.3332 10.0001 18.3332ZM11.6668 16.4582C12.9579 16.1237 14.1191 15.4095 15.0001 14.4082V9.1665C14.5581 9.1665 14.1342 8.9909 13.8216 8.67835C13.509 8.36579 13.3334 7.94186 13.3334 7.49983V4.22483C12.5643 3.78245 11.7142 3.49906 10.8334 3.3915V4.1665C10.8334 4.60853 10.6578 5.03245 10.3453 5.34502C10.0327 5.65758 9.60881 5.83316 9.16678 5.83316V6.6665C9.16678 7.10853 8.99118 7.53245 8.67862 7.84502C8.36606 8.15758 7.94214 8.33316 7.50011 8.33316V9.99983H10.0001C10.4421 9.99983 10.8661 10.1754 11.1786 10.488C11.4912 10.8005 11.6668 11.2245 11.6668 11.6665V16.4582ZM8.33345 16.4582V14.1665C7.89142 14.1665 7.46749 13.9909 7.15494 13.6783C6.84236 13.3658 6.66678 12.9419 6.66678 12.4998V11.6665H6.25011C5.91859 11.6665 5.60065 11.5348 5.36622 11.3004C5.13181 11.066 5.00011 10.748 5.00011 10.4165V8.33316H3.54178C3.10115 10.046 3.35828 11.8636 4.25668 13.387C5.15508 14.9104 6.62132 16.0149 8.33345 16.4582Z" fill="#657085"/>
</svg>
