<svg width="48" height="48" viewBox="0 0 48 48" fill="none" xmlns="http://www.w3.org/2000/svg">
<path d="M0 4C0 1.79086 1.79086 0 4 0H44C46.2091 0 48 1.79086 48 4V44C48 46.2091 46.2091 48 44 48H4C1.79086 48 0 46.2091 0 44V4Z" fill="#F3F8FF"/>
<path fill-rule="evenodd" clip-rule="evenodd" d="M17.3333 12C14.3878 12 12 14.3878 12 17.3333V30.6667C12 33.6121 14.3878 36 17.3333 36H30.6667C33.6121 36 36 33.6121 36 30.6667V17.3333C36 14.3878 33.6121 12 30.6667 12H17.3333ZM30.3661 21.0947C30.3661 20.9479 30.3661 20.8021 30.3557 20.6563C30.9951 20.1749 31.5509 19.5867 32 18.9161C31.3993 19.1857 30.7625 19.3611 30.1111 19.4366C30.7959 19.0201 31.3088 18.361 31.5529 17.5835C30.9103 17.9755 30.2061 18.2503 29.472 18.3956C28.8725 17.7389 28.0197 17.3333 27.0757 17.3333C26.6452 17.3332 26.2188 17.4201 25.8209 17.5891C25.4232 17.7581 25.0617 18.0058 24.7572 18.3181C24.4527 18.6305 24.2111 19.0013 24.0463 19.4095C23.8815 19.8176 23.7967 20.2551 23.7967 20.6968C23.7978 20.9563 23.8252 21.2149 23.8786 21.4684C22.574 21.4008 21.2978 21.0524 20.1329 20.4458C18.9681 19.8392 17.9406 18.988 17.1172 17.9475C16.6944 18.6887 16.5639 19.5678 16.7526 20.4045C16.9412 21.2412 17.4347 21.9722 18.1318 22.4476C17.5934 22.4264 17.0861 22.2699 16.6494 22.0208V22.0623C16.6487 22.8396 16.9103 23.5931 17.3896 24.195C17.869 24.7969 18.5366 25.2099 19.2791 25.364C19.0052 25.4364 18.7106 25.478 18.4151 25.478C18.2033 25.478 18 25.4567 17.7977 25.4259C18.0078 26.0941 18.4163 26.6784 18.9659 27.0968C19.5155 27.5153 20.1788 27.7472 20.8631 27.7599C19.702 28.6944 18.2681 29.2005 16.7925 29.1968C16.5186 29.1968 16.2645 29.1872 16 29.1563C17.502 30.1468 19.2508 30.6712 21.0362 30.6667C27.0664 30.6667 30.3661 25.5417 30.3661 21.0947Z" fill="#939DAE"/>
</svg>
