<svg width="48" height="48" viewBox="0 0 48 48" fill="none" xmlns="http://www.w3.org/2000/svg">
<path d="M0 4C0 1.79086 1.79086 0 4 0H44C46.2091 0 48 1.79086 48 4V44C48 46.2091 46.2091 48 44 48H4C1.79086 48 0 46.2091 0 44V4Z" fill="#F3F8FF"/>
<path fill-rule="evenodd" clip-rule="evenodd" d="M17.3333 12C14.3878 12 12 14.3878 12 17.3333V30.6667C12 33.6121 14.3878 36 17.3333 36H24.006V26H21.3333V22.5537L24.006 22.5525L24.002 20.5225C24.002 17.7113 24.8127 16 28.3332 16H31.9655V19.4475H29.4324C28.0608 19.4475 27.9957 19.9287 27.9957 20.8275L27.9904 22.5525H32L31.6119 25.9988L27.9931 26L27.9904 36H30.6667C33.6121 36 36 33.6121 36 30.6667V17.3333C36 14.3878 33.6121 12 30.6667 12H17.3333Z" fill="#939DAE"/>
</svg>
