<svg width="48" height="48" viewBox="0 0 48 48" fill="none" xmlns="http://www.w3.org/2000/svg">
<path d="M0 4C0 1.79086 1.79086 0 4 0H44C46.2091 0 48 1.79086 48 4V44C48 46.2091 46.2091 48 44 48H4C1.79086 48 0 46.2091 0 44V4Z" fill="#F3F8FF"/>
<path fill-rule="evenodd" clip-rule="evenodd" d="M17.3333 12C14.3878 12 12 14.3878 12 17.3333V30.6667C12 33.6121 14.3878 36 17.3333 36H30.6667C33.6121 36 36 33.6121 36 30.6667V17.3333C36 14.3878 33.6121 12 30.6667 12H17.3333ZM18.1634 18.8633C21.8731 18.5707 26.1919 18.6335 29.8347 18.8633C31.1396 18.9083 31.7755 20.1679 31.8635 21.1667C32.0455 23.2657 32.0455 24.59 31.8635 26.688C31.7765 27.6869 30.9696 28.9633 29.8356 29.1481C26.2148 29.4108 21.9181 29.3788 18.1644 29.1481C16.9924 29.0093 16.2235 27.6869 16.1365 26.688C15.9545 24.59 15.9545 23.3961 16.1365 21.298C16.2225 20.2992 17.0114 18.9843 18.1634 18.8633ZM21.9991 21.2755V26.6543L26.9988 23.9654L21.9991 21.2755Z" fill="#939DAE"/>
</svg>
