<svg width="48" height="48" viewBox="0 0 48 48" fill="none" xmlns="http://www.w3.org/2000/svg">
<path d="M0 4C0 1.79086 1.79086 0 4 0H44C46.2091 0 48 1.79086 48 4V44C48 46.2091 46.2091 48 44 48H4C1.79086 48 0 46.2091 0 44V4Z" fill="#F3F8FF"/>
<path fill-rule="evenodd" clip-rule="evenodd" d="M17.3333 12C14.3878 12 12 14.3878 12 17.3333V30.6667C12 33.6121 14.3878 36 17.3333 36H30.6667C33.6121 36 36 33.6121 36 30.6667V17.3333C36 14.3878 33.6121 12 30.6667 12H17.3333ZM19.636 30.6667V20.7658H16.198V30.6667H19.636ZM16 17.7091C16 16.7395 16.771 16 17.938 16C19.115 16 19.844 16.7395 19.855 17.7091C19.865 18.6577 19.115 19.4173 17.917 19.4173H17.896C16.74 19.4173 16 18.6577 16 17.7091ZM24.958 22.1747C25.4091 21.4966 26.2229 20.5356 28.052 20.5356C30.312 20.5356 32 21.9541 32 24.9916V30.6667H28.572V25.3715C28.572 24.0431 28.072 23.1338 26.834 23.1338C25.884 23.1338 25.323 23.7429 25.072 24.3327C24.99 24.5514 24.958 24.842 24.958 25.1413V30.6667H21.531C21.573 21.6952 21.531 20.7658 21.531 20.7658H24.958V22.1747Z" fill="#939DAE"/>
</svg>
